<svg width="51" height="51" viewBox="0 0 51 51" fill="none" xmlns="http://www.w3.org/2000/svg">
<g id="brain">
<path id="Vector" d="M14.875 29.75C11.3542 29.75 8.5 32.6041 8.5 36.125C8.5 39.6459 11.3542 42.5 14.875 42.5C15.6201 42.5 16.3353 42.3721 17 42.1373" stroke="#D7EBC1" stroke-width="5" stroke-linecap="round" stroke-linejoin="round"/>
<path id="Vector_2" d="M9.06074 33.1598C6.21405 31.7862 4.25 28.8724 4.25 25.5C4.25 22.9251 5.3948 20.6178 7.2032 19.0591" stroke="#D7EBC1" stroke-width="5" stroke-linecap="round" stroke-linejoin="round"/>
<path id="Vector_3" d="M7.26863 18.8874C6.70416 18.0436 6.375 17.029 6.375 15.9375C6.375 13.0035 8.75349 10.625 11.6875 10.625C12.8837 10.625 13.9875 11.0203 14.8755 11.6875" stroke="#D7EBC1" stroke-width="5" stroke-linecap="round" stroke-linejoin="round"/>
<path id="Vector_4" d="M15.3801 11.8263C15.0561 11.1396 14.875 10.3722 14.875 9.5625C14.875 6.62849 17.2535 4.25 20.1875 4.25C23.1215 4.25 25.5 6.62849 25.5 9.5625V42.5" stroke="#D7EBC1" stroke-width="5" stroke-linecap="round" stroke-linejoin="round"/>
<path id="Vector_5" d="M17 42.5C17 44.8473 18.9028 46.75 21.25 46.75C23.5973 46.75 25.5 44.8473 25.5 42.5" stroke="#D7EBC1" stroke-width="5" stroke-linecap="round" stroke-linejoin="round"/>
<path id="Vector_6" d="M25.5 14.875C25.5 18.3958 28.3541 21.25 31.875 21.25" stroke="#D7EBC1" stroke-width="5" stroke-linecap="round" stroke-linejoin="round"/>
<path id="Vector_7" d="M36.125 29.75C39.6459 29.75 42.5 32.6041 42.5 36.125C42.5 39.6459 39.6459 42.5 36.125 42.5C35.38 42.5 34.6647 42.3721 34 42.1373" stroke="#D7EBC1" stroke-width="5" stroke-linecap="round" stroke-linejoin="round"/>
<path id="Vector_8" d="M41.9392 33.1598C44.7859 31.7862 46.75 28.8724 46.75 25.5C46.75 22.9251 45.6051 20.6178 43.7967 19.0591" stroke="#D7EBC1" stroke-width="5" stroke-linecap="round" stroke-linejoin="round"/>
<path id="Vector_9" d="M43.7314 18.8874C44.2958 18.0436 44.6249 17.029 44.6249 15.9375C44.6249 13.0035 42.2464 10.625 39.3124 10.625C38.1163 10.625 37.0123 11.0203 36.1245 11.6875" stroke="#D7EBC1" stroke-width="5" stroke-linecap="round" stroke-linejoin="round"/>
<path id="Vector_10" d="M25.5 9.5625C25.5 6.62849 27.8785 4.25 30.8125 4.25C33.7465 4.25 36.125 6.62849 36.125 9.5625C36.125 10.3722 35.9439 11.1396 35.6199 11.8263" stroke="#D7EBC1" stroke-width="5" stroke-linecap="round" stroke-linejoin="round"/>
<path id="Vector_11" d="M34 42.5C34 44.8473 32.0973 46.75 29.75 46.75C27.4027 46.75 25.5 44.8473 25.5 42.5" stroke="#D7EBC1" stroke-width="5" stroke-linecap="round" stroke-linejoin="round"/>
</g>
</svg>
