<svg width="46" height="46" viewBox="0 0 46 46" fill="none" xmlns="http://www.w3.org/2000/svg">
<g id="headphon">
<path id="Vector" d="M7.66659 25.8746L6.73687 26.1071C5.03038 26.5338 3.83325 28.0671 3.83325 29.826V33.4234C3.83325 35.1823 5.03038 36.7157 6.73687 37.1423L10.071 37.9759C10.7968 38.1572 11.4999 37.6083 11.4999 36.8602V26.3893C11.4999 25.6412 10.7968 25.0923 10.071 25.2736L7.66659 25.8746ZM7.66659 25.8746V24.9167C7.66659 15.3898 14.5315 7.66669 22.9999 7.66669C31.4683 7.66669 38.3333 15.3898 38.3333 24.9167V25.875M38.3333 25.875L39.263 26.1071C40.9694 26.5338 42.1666 28.0671 42.1666 29.826V33.4234C42.1666 35.1823 40.9694 36.7157 39.263 37.1423L35.9288 37.9759C35.203 38.1572 34.4999 37.6083 34.4999 36.8602V26.3893C34.4999 25.6412 35.203 25.0923 35.9288 25.2736L38.3333 25.875Z" stroke="#D7EBC1" stroke-width="5" stroke-linecap="round" stroke-linejoin="round"/>
</g>
</svg>
