<svg width="39" height="39" viewBox="0 0 39 39" fill="none" xmlns="http://www.w3.org/2000/svg">
<g id="heart">
<path id="Vector" fill-rule="evenodd" clip-rule="evenodd" d="M19.4998 6.40621C21.4105 4.64542 23.8987 3.65625 26.4961 3.65625C29.3009 3.65625 31.9784 4.80963 33.9388 6.84245C35.8852 8.85919 36.9688 11.5778 36.9688 14.4011C36.9688 17.2245 35.885 19.9433 33.9388 21.9598C32.6446 23.3014 31.3524 24.6734 30.0536 26.0525C27.4154 28.8538 24.7489 31.6851 21.9791 34.3525L21.9726 34.3587C20.5442 35.7141 18.2821 35.6648 16.9146 34.2475L5.06023 21.9596C1.02159 17.7733 1.02159 11.029 5.06023 6.84263C9.01233 2.74599 15.3764 2.60052 19.4998 6.40621Z" fill="#D7EBC1"/>
</g>
</svg>
