<svg width="47" height="47" viewBox="0 0 47 47" fill="none" xmlns="http://www.w3.org/2000/svg">
<g id="pencil">
<path id="Vector" d="M23.5001 3.91669C12.6845 3.91669 3.91675 12.6844 3.91675 23.5C3.91675 34.3155 12.6845 43.0834 23.5001 43.0834C34.3156 43.0834 43.0834 34.3155 43.0834 23.5C43.0834 12.6844 34.3156 3.91669 23.5001 3.91669Z" stroke="#D7EBC1" stroke-width="5" stroke-linecap="round" stroke-linejoin="round"/>
<path id="Vector_2" d="M15.6667 41.4538V27.4166L23.5001 13.7083L31.3334 27.4166V41.4538" stroke="#D7EBC1" stroke-width="5" stroke-linecap="round" stroke-linejoin="round"/>
<path id="Vector_3" d="M15.6667 27.4167C15.6667 27.4167 17.8733 29.375 19.5834 29.375C21.2934 29.375 23.5001 27.4167 23.5001 27.4167C23.5001 27.4167 25.7067 29.375 27.4167 29.375C29.1268 29.375 31.3334 27.4167 31.3334 27.4167" stroke="#D7EBC1" stroke-width="5" stroke-linecap="round" stroke-linejoin="round"/>
</g>
</svg>
